<svg opacity="0.4" width="1600" height="647" viewBox="0 0 1600 647" fill="none" xmlns="http://www.w3.org/2000/svg">
<mask id="mask0_33_17996" style="mask-type:alpha" maskUnits="userSpaceOnUse" x="0" y="0" width="1600" height="647">
<rect width="1600" height="647" fill="#D9D9D9"/>
</mask>
<g mask="url(#mask0_33_17996)">
<path d="M313.78 743C294.27 680.346 324.323 607.671 381.032 589.548C437.741 571.425 498.841 576.935 558.332 579.215C617.823 581.495 686.859 596.234 737.93 565.64C796.758 530.399 822.435 447.702 851.449 385.57C868.155 349.797 885.347 313.501 911.816 284.205C950.468 241.425 1008.25 216.612 1065.89 218.041C1123.75 219.476 1186.86 244.636 1236.08 214.194C1264.67 196.511 1280.13 164.276 1295.49 134.377C1314.31 97.7369 1325.6 48.3235 1357.85 27.7648C1407.23 -3.72282 1534.53 45.4032 1484.9 -36.2126C1435.26 -117.828 1788.82 -49.48 1878.13 -428" stroke="url(#paint0_linear_33_17996)"/>
<path d="M286.731 734.733C269.772 672.434 300.214 600.521 356.193 580.279C412.103 560.118 472.65 562.738 531.855 563.284C557.148 563.518 584.085 566.031 610.666 566.952C646.337 568.226 681.933 566.948 711.993 551.473C771.506 520.837 800.121 445.744 831.889 388.024C840.609 372.18 849.467 356.057 859.217 340.277C869.957 322.895 881.601 305.769 895.484 290.175C933.889 247.103 989.316 219.371 1045.94 218.226C1049.66 218.151 1053.42 218.153 1057.2 218.272C1111.04 219.976 1169.79 240.779 1216.55 215.424C1229.75 208.277 1240.32 198.244 1249.49 186.821C1260.56 173.027 1269.7 157.471 1278.75 142.55C1299.09 109.077 1312.35 63.7632 1345.35 45.0586C1395.65 16.359 1517.2 63.4019 1476.13 -16.9696C1453.77 -60.7153 1540.15 -68.5673 1641.25 -116.616C1676.3 -133.272 1712.71 -153.032 1747.2 -181.168C1802.35 -226.156 1853.65 -293.661 1881.86 -398.873" stroke="url(#paint1_linear_33_17996)"/>
<path d="M259.682 726.465C245.274 664.523 276.103 593.371 331.354 571.01C386.465 548.811 446.465 548.522 505.377 547.354C530.786 546.85 557.767 548.685 584.414 549.481C619.628 550.603 655.358 550.605 686.056 537.307C746.192 511.256 777.826 443.774 812.328 390.477C821.824 375.808 831.475 360.709 841.86 345.596C853.296 328.952 865.259 311.978 879.152 296.144C917.311 252.782 970.398 222.112 1025.98 218.412C1029.67 218.167 1033.39 217.978 1037.14 217.943C1090.15 217.448 1149.5 238.907 1197.02 216.654C1210.44 210.387 1221.32 201.343 1230.86 190.944C1242.44 178.321 1252.3 164.239 1262.01 150.724C1283.88 120.417 1299.14 79.2969 1332.86 62.3523C1384.15 36.5838 1499.88 81.0187 1467.36 2.27331C1449.22 -41.6469 1532.44 -56.4756 1632.08 -102.832C1667.87 -119.487 1705.03 -136.849 1740.62 -162.009C1798.49 -202.917 1854.48 -266.552 1885.58 -369.746" stroke="url(#paint2_linear_33_17996)"/>
<path d="M232.634 718.197C220.776 656.612 251.993 586.221 306.516 561.741C360.827 537.504 420.285 534.289 478.899 531.423C504.427 530.175 531.448 531.339 558.162 532.009C592.919 532.979 628.753 534.25 660.12 523.14C720.816 501.642 755.556 441.795 792.768 392.93C803.045 379.435 813.483 365.36 824.502 350.916C836.635 335.009 848.917 318.187 862.821 302.114C900.734 258.461 951.49 224.833 1006.03 218.597C1009.67 218.181 1013.35 217.804 1017.07 217.613C1069.25 214.938 1129.22 237.034 1177.49 217.884C1191.14 212.497 1202.33 204.441 1212.23 195.068C1224.33 183.613 1234.89 171.006 1245.27 158.897C1268.66 131.756 1285.89 94.7771 1320.37 79.6462C1372.59 56.7279 1482.69 98.1904 1458.59 21.5164C1444.63 -22.8765 1524.75 -44.3495 1622.9 -89.0476C1659.46 -105.693 1697.42 -120.64 1734.04 -142.848C1794.74 -179.659 1855.3 -239.443 1889.31 -340.619" stroke="url(#paint3_linear_33_17996)"/>
<path d="M205.585 709.93C196.277 648.701 227.884 579.071 281.676 552.472C335.189 526.198 394.11 520.04 452.422 515.493C478.069 513.493 505.13 513.994 531.911 514.537C566.21 515.356 602.117 517.876 634.183 508.974C695.384 491.982 733.311 439.812 773.207 395.384C784.275 383.06 795.491 370.011 807.144 356.236C819.975 341.066 832.575 324.396 846.489 308.084C884.156 264.139 932.59 227.531 986.079 218.783C989.681 218.194 993.315 217.632 997.007 217.284C1048.35 212.448 1108.94 235.162 1157.96 219.114C1171.83 214.607 1183.35 207.54 1193.6 199.191C1206.23 188.905 1217.49 177.773 1228.53 167.07C1253.45 143.097 1272.64 110.252 1307.87 96.9401C1361.02 76.8626 1465.81 114.895 1449.82 40.7602C1440.08 -4.42072 1517.08 -32.1906 1613.73 -75.2635C1651.04 -91.8919 1689.88 -104.395 1727.46 -123.688C1791.1 -156.359 1856.13 -212.333 1893.04 -311.492" stroke="url(#paint4_linear_33_17996)"/>
<path d="M178.536 701.662C171.779 640.789 203.773 571.921 256.838 543.204C309.55 514.891 367.935 505.772 425.945 499.562C451.713 496.804 478.813 496.592 505.659 497.066C539.503 497.662 575.457 501.476 608.246 494.807C669.903 482.266 711.097 437.832 753.646 397.838C765.511 386.685 777.499 374.662 789.786 361.556C803.314 347.123 816.233 330.605 830.158 314.053C867.577 269.818 913.695 230.205 966.127 218.968C969.688 218.205 973.28 217.461 976.943 216.954C1027.44 209.978 1088.66 233.289 1138.43 220.345C1152.52 216.717 1164.37 210.641 1174.97 203.315C1188.15 194.2 1200.06 184.515 1211.79 175.244C1238.19 154.38 1259.38 125.72 1295.38 114.234C1349.44 96.9864 1449.38 131.165 1441.05 60.0033C1435.64 13.7352 1509.42 -19.9998 1604.56 -61.4794C1642.64 -78.0813 1682.39 -88.0991 1720.88 -104.528C1787.55 -132.99 1856.95 -185.223 1896.76 -282.365" stroke="url(#paint5_linear_33_17996)"/>
<path d="M151.487 693.395C147.281 632.877 179.663 564.771 231.998 533.935C283.912 503.584 341.762 491.487 399.467 483.632C425.356 480.107 452.494 479.241 479.407 479.594C512.794 480.033 548.778 485.045 582.31 480.64C644.388 472.487 688.913 435.864 734.086 400.291C746.756 390.314 759.507 379.313 772.429 366.876C786.653 353.18 799.891 336.814 813.826 320.022C851 275.496 894.801 232.855 946.175 219.153C949.696 218.215 953.244 217.29 956.878 216.625C1006.53 207.529 1068.38 231.417 1118.89 221.576C1133.22 218.827 1145.41 213.749 1156.34 207.438C1170.08 199.502 1182.66 191.277 1195.05 183.417C1222.97 165.708 1246.12 141.181 1282.89 131.528C1337.86 117.098 1433.51 147.097 1432.28 79.2462C1431.42 31.6426 1501.78 -7.77876 1595.39 -47.6954C1634.23 -64.2608 1674.95 -71.746 1714.29 -85.3677C1784.08 -109.533 1857.78 -158.114 1900.49 -253.238" stroke="url(#paint6_linear_33_17996)"/>
<path d="M124.439 685.127C122.783 624.967 155.553 557.622 207.159 524.666C258.273 492.277 315.589 477.185 372.99 467.702C399 463.404 426.175 461.891 453.155 462.123C486.085 462.405 522.088 468.578 556.373 466.474C618.851 462.64 666.756 433.914 714.525 402.745C728.009 393.947 741.515 383.964 755.07 372.196C769.992 359.236 783.55 343.022 797.494 325.993C834.422 281.174 875.905 235.481 926.223 219.339C929.703 218.223 933.207 217.123 936.814 216.295C985.614 205.102 1048.1 229.544 1099.36 222.806C1113.91 220.937 1126.46 216.866 1137.71 211.562C1152.02 204.813 1165.26 198.041 1178.31 191.591C1207.76 177.04 1232.85 156.633 1270.4 148.822C1326.27 137.199 1418.26 162.828 1423.51 98.4893C1427.52 49.3905 1494.15 4.47121 1586.21 -33.9113C1625.84 -50.4307 1667.55 -55.329 1707.71 -66.2072C1780.67 -85.9693 1858.6 -131.004 1904.22 -224.112" stroke="url(#paint7_linear_33_17996)"/>
<path d="M97.39 676.86C98.2848 617.055 131.443 550.472 182.321 515.397C232.636 480.971 289.413 462.867 346.512 451.771C372.642 446.693 399.857 444.543 426.904 444.651C459.376 444.781 495.394 452.074 530.437 452.307C593.308 452.725 644.619 431.989 694.965 405.199C709.267 397.588 723.523 388.616 737.712 377.516C753.331 365.293 767.208 349.232 781.163 331.962C817.843 286.853 857.005 238.083 906.271 219.525C909.709 218.229 913.172 216.956 916.75 215.966C964.704 202.695 1027.82 227.673 1079.83 224.036C1094.6 223.047 1107.52 219.992 1119.08 215.685C1133.97 210.137 1147.85 204.806 1161.57 199.765C1192.56 188.375 1219.58 172.077 1257.9 166.116C1314.67 157.285 1414.5 179.529 1414.74 117.733C1432.8 69.5277 1486.54 16.7501 1577.04 -20.1271C1617.44 -36.5889 1660.16 -38.848 1701.13 -47.0466C1777.29 -62.2896 1859.42 -103.895 1907.94 -194.985" stroke="url(#paint8_linear_33_17996)"/>
<path d="M70.3414 668.592C73.7868 609.144 107.334 543.322 157.481 506.128C206.998 469.664 263.233 448.533 320.035 435.84C346.283 429.975 373.538 427.197 400.652 427.179C432.667 427.158 468.703 435.534 504.5 438.141C567.771 442.747 622.497 430.093 675.404 407.652C690.529 401.237 705.531 393.266 720.355 382.836C736.67 371.35 750.866 355.441 764.831 337.931C801.266 292.531 838.095 240.663 886.319 219.709C889.715 218.234 893.136 216.791 896.685 215.636C943.801 200.309 1007.54 225.8 1060.3 225.266C1075.29 225.157 1088.58 223.13 1100.45 219.808C1115.93 215.477 1130.45 211.573 1144.83 207.938C1177.35 199.715 1206.31 187.512 1245.41 183.41C1303.08 177.36 1389.47 194.32 1405.97 136.976C1420.96 84.9048 1478.93 29.0551 1567.87 -6.34327C1609.06 -22.7357 1652.78 -22.3067 1694.55 -27.8871C1773.92 -38.4928 1860.25 -76.785 1911.67 -165.858" stroke="url(#paint9_linear_33_17996)"/>
<path d="M43.2926 660.325C49.2886 601.232 83.2234 536.172 132.643 496.859C181.359 458.357 237.05 434.184 293.557 419.91C319.922 413.249 347.22 409.853 374.4 409.708C405.957 409.538 442.024 418.96 478.563 423.974C542.252 432.711 600.38 428.228 655.844 410.105C671.794 404.894 687.539 397.918 702.997 388.156C720.009 377.407 734.524 361.649 748.499 343.902C784.688 298.209 819.174 243.222 866.367 219.895C869.72 218.237 873.101 216.627 876.621 215.307C922.906 197.942 987.257 223.927 1040.77 226.496C1055.99 227.266 1069.64 226.281 1081.82 223.931C1097.88 220.833 1113.05 218.342 1128.09 216.112C1162.14 211.06 1193.04 202.938 1232.92 200.704C1291.48 197.421 1375.73 210.359 1397.2 156.219C1418.34 102.942 1471.34 41.3861 1558.7 7.4416C1600.67 -8.86911 1645.39 -5.7082 1687.96 -8.72659C1770.54 -14.5811 1861.07 -49.6751 1915.4 -136.731" stroke="url(#paint10_linear_33_17996)"/>
<path d="M16.2439 652.057C24.7905 593.322 59.113 529.022 107.804 487.59C155.721 447.05 210.86 419.821 267.079 403.979C293.558 396.518 320.901 392.512 348.148 392.236C379.248 391.921 415.359 402.357 452.627 409.808C516.76 422.628 578.259 426.392 636.283 412.559C653.057 408.561 669.547 402.569 685.639 393.476C703.349 383.464 718.182 367.858 732.168 349.871C768.109 303.888 800.238 245.764 846.415 220.08C849.725 218.24 853.067 216.465 856.556 214.977C902.02 195.593 966.977 222.055 1021.24 227.727C1036.68 229.376 1050.7 229.444 1063.19 228.055C1079.84 226.205 1095.65 225.144 1111.35 224.285C1146.94 222.477 1179.77 218.357 1220.42 217.998C1279.89 217.472 1362.23 226.723 1388.44 175.463C1416.12 121.322 1463.75 53.7428 1549.52 21.2257C1592.29 5.01077 1637.99 10.9378 1681.38 10.4339C1767.14 9.43792 1861.9 -22.5659 1919.12 -107.604" stroke="url(#paint11_linear_33_17996)"/>
<path d="M-10.8049 643.79C0.292991 585.41 35.0035 521.873 82.9645 478.321C130.083 435.744 184.664 405.446 240.602 388.048C267.191 379.779 294.584 375.226 321.896 374.764C352.54 374.365 388.713 385.728 426.69 395.64C491.301 412.506 556.131 424.581 616.722 415.013C634.318 412.235 651.555 407.22 668.281 398.796C686.688 389.52 701.84 374.067 715.836 355.841C751.532 309.566 781.286 248.291 826.462 220.266C829.727 218.241 833.034 216.304 836.492 214.648C881.148 193.26 946.695 220.182 1001.71 228.957C1017.37 231.486 1031.76 232.615 1044.56 232.178C1061.79 231.59 1078.25 231.911 1094.61 232.459C1131.72 233.817 1166.51 233.768 1207.93 235.292C1268.3 237.512 1348.84 243.45 1379.67 194.706C1414.19 140.11 1456.18 66.1228 1540.35 35.0098C1583.92 18.9054 1630.56 27.625 1674.8 29.5944C1763.68 33.5504 1862.72 4.54394 1922.85 -78.4775" stroke="url(#paint12_linear_33_17996)"/>
<path d="M-37.8539 635.522C-24.2054 577.498 10.8937 514.723 58.1257 469.053C104.445 424.437 158.461 391.059 214.124 372.118C240.821 363.034 268.265 357.88 295.645 357.292C325.83 356.741 362.089 369.078 400.753 381.474C465.879 402.354 533.988 422.792 597.162 417.467C615.575 415.914 633.564 411.872 650.923 404.116C670.026 395.578 685.498 380.276 699.504 361.811C734.954 315.245 762.318 250.806 806.511 220.452C809.729 218.241 813.002 216.144 816.427 214.318C860.289 190.939 926.415 218.31 982.18 230.188C998.067 233.596 1012.81 235.796 1025.93 236.302C1043.73 236.988 1060.85 238.679 1077.87 240.633C1116.51 245.157 1153.25 249.173 1195.44 252.585C1256.72 257.543 1335.44 260.543 1370.9 213.949C1412.46 159.326 1448.6 78.5262 1531.18 48.7939C1575.55 32.8165 1623.1 44.3442 1668.22 48.7542C1760.18 57.7432 1863.55 31.6538 1926.58 -49.3507" stroke="url(#paint13_linear_33_17996)"/>
<path d="M-64.9025 627.255C-48.7034 569.587 -13.2165 507.572 33.2866 459.783C78.8068 413.13 132.25 376.66 187.647 356.188C214.447 346.284 241.947 340.534 269.393 339.821C299.122 339.118 335.487 352.412 374.817 367.307C440.496 392.181 511.831 421.017 577.601 419.92C596.828 419.599 615.572 416.523 633.565 409.436C653.366 401.634 669.157 386.485 683.173 367.78C718.376 320.923 743.33 253.311 786.559 220.636C789.729 218.24 792.971 215.985 796.363 213.988C839.446 188.629 906.134 216.437 962.649 231.418C978.76 235.706 993.849 238.982 1007.3 240.425C1025.66 242.395 1043.44 245.445 1061.13 248.806C1101.29 256.497 1139.99 264.571 1182.94 269.879C1245.14 277.565 1321.95 277.975 1362.13 233.192C1410.81 178.94 1441.04 90.9528 1522.01 62.5778C1567.19 46.7437 1615.62 61.0889 1661.64 67.9146C1756.62 82.002 1864.37 58.7628 1930.3 -20.224" stroke="url(#paint14_linear_33_17996)"/>
<path d="M-91.9512 618.987C-73.2016 561.676 -37.3269 500.423 8.44801 450.515C53.1684 401.823 105.991 362.154 161.169 340.258C188.048 329.48 215.629 323.188 243.141 322.35C272.413 321.494 308.907 335.736 348.88 353.141C415.148 381.995 489.649 419.385 558.041 422.373C578.074 423.326 597.58 421.174 616.207 414.755C636.705 407.691 652.815 392.694 666.841 373.75C701.797 326.602 724.325 255.813 766.607 220.822C769.728 218.239 772.942 215.827 776.298 213.659C818.618 186.328 885.853 214.565 943.118 232.649C959.453 237.816 974.884 242.172 988.675 244.549C1007.59 247.808 1026.04 252.213 1044.39 256.979C1086.08 267.837 1126.74 279.915 1170.45 287.173C1233.58 297.509 1308.3 295.697 1353.36 252.436C1409.13 198.891 1433.48 103.401 1512.83 76.3621C1558.83 60.6899 1608.1 77.8518 1655.05 87.0752C1752.99 106.312 1865.19 85.8728 1934.03 8.90295" stroke="url(#paint15_linear_33_17996)"/>
<path d="M-119 610.72C-66.7182 470.922 75.713 309.814 216.89 304.878C307.118 301.723 474.106 457.314 598.85 420.075C676.349 396.939 690.122 259.918 756.234 213.329C809.674 175.671 906.389 233.774 970.045 248.672C1033.7 263.569 1093.91 291.344 1157.96 304.468C1222 317.591 1294.47 313.654 1344.59 271.679C1407.37 219.101 1425.92 115.869 1503.66 90.1459C1550.48 74.656 1600.55 94.6268 1648.47 106.235C1749.31 130.66 1866.02 112.982 1937.76 38.0295" stroke="url(#paint16_linear_33_17996)"/>
</g>
<defs>
<linearGradient id="paint0_linear_33_17996" x1="1423.8" y1="603.738" x2="455.395" y2="1115.66" gradientUnits="userSpaceOnUse">
<stop stop-color="#BDEA09"/>
<stop offset="1" stop-color="#00C5A1"/>
</linearGradient>
<linearGradient id="paint1_linear_33_17996" x1="1418.99" y1="599.918" x2="455.026" y2="1136.2" gradientUnits="userSpaceOnUse">
<stop stop-color="#BDEA09"/>
<stop offset="1" stop-color="#00C5A1"/>
</linearGradient>
<linearGradient id="paint2_linear_33_17996" x1="1414.14" y1="596.097" x2="457.071" y2="1156.9" gradientUnits="userSpaceOnUse">
<stop stop-color="#BDEA09"/>
<stop offset="1" stop-color="#00C5A1"/>
</linearGradient>
<linearGradient id="paint3_linear_33_17996" x1="1409.26" y1="592.277" x2="461.693" y2="1177.62" gradientUnits="userSpaceOnUse">
<stop stop-color="#BDEA09"/>
<stop offset="1" stop-color="#00C5A1"/>
</linearGradient>
<linearGradient id="paint4_linear_33_17996" x1="1404.34" y1="588.457" x2="469.053" y2="1198.15" gradientUnits="userSpaceOnUse">
<stop stop-color="#BDEA09"/>
<stop offset="1" stop-color="#00C5A1"/>
</linearGradient>
<linearGradient id="paint5_linear_33_17996" x1="1399.37" y1="584.636" x2="479.306" y2="1218.28" gradientUnits="userSpaceOnUse">
<stop stop-color="#BDEA09"/>
<stop offset="1" stop-color="#00C5A1"/>
</linearGradient>
<linearGradient id="paint6_linear_33_17996" x1="1394.35" y1="580.816" x2="492.594" y2="1237.74" gradientUnits="userSpaceOnUse">
<stop stop-color="#BDEA09"/>
<stop offset="1" stop-color="#00C5A1"/>
</linearGradient>
<linearGradient id="paint7_linear_33_17996" x1="1389.26" y1="576.996" x2="509.041" y2="1256.23" gradientUnits="userSpaceOnUse">
<stop stop-color="#BDEA09"/>
<stop offset="1" stop-color="#00C5A1"/>
</linearGradient>
<linearGradient id="paint8_linear_33_17996" x1="1384.1" y1="573.175" x2="528.749" y2="1273.41" gradientUnits="userSpaceOnUse">
<stop stop-color="#BDEA09"/>
<stop offset="1" stop-color="#00C5A1"/>
</linearGradient>
<linearGradient id="paint9_linear_33_17996" x1="1378.92" y1="569.355" x2="551.864" y2="1288.79" gradientUnits="userSpaceOnUse">
<stop stop-color="#BDEA09"/>
<stop offset="1" stop-color="#00C5A1"/>
</linearGradient>
<linearGradient id="paint10_linear_33_17996" x1="1373.75" y1="565.534" x2="578.418" y2="1301.93" gradientUnits="userSpaceOnUse">
<stop stop-color="#BDEA09"/>
<stop offset="1" stop-color="#00C5A1"/>
</linearGradient>
<linearGradient id="paint11_linear_33_17996" x1="1368.57" y1="561.714" x2="608.367" y2="1312.38" gradientUnits="userSpaceOnUse">
<stop stop-color="#BDEA09"/>
<stop offset="1" stop-color="#00C5A1"/>
</linearGradient>
<linearGradient id="paint12_linear_33_17996" x1="1363.39" y1="557.894" x2="641.601" y2="1319.65" gradientUnits="userSpaceOnUse">
<stop stop-color="#BDEA09"/>
<stop offset="1" stop-color="#00C5A1"/>
</linearGradient>
<linearGradient id="paint13_linear_33_17996" x1="1358.21" y1="554.073" x2="677.938" y2="1323.27" gradientUnits="userSpaceOnUse">
<stop stop-color="#BDEA09"/>
<stop offset="1" stop-color="#00C5A1"/>
</linearGradient>
<linearGradient id="paint14_linear_33_17996" x1="1353.04" y1="550.253" x2="717.117" y2="1322.73" gradientUnits="userSpaceOnUse">
<stop stop-color="#BDEA09"/>
<stop offset="1" stop-color="#00C5A1"/>
</linearGradient>
<linearGradient id="paint15_linear_33_17996" x1="1347.86" y1="546.433" x2="758.787" y2="1317.58" gradientUnits="userSpaceOnUse">
<stop stop-color="#BDEA09"/>
<stop offset="1" stop-color="#00C5A1"/>
</linearGradient>
<linearGradient id="paint16_linear_33_17996" x1="1342.68" y1="542.612" x2="802.513" y2="1307.36" gradientUnits="userSpaceOnUse">
<stop stop-color="#BDEA09"/>
<stop offset="1" stop-color="#00C5A1"/>
</linearGradient>
</defs>
</svg>
